Coordinates
nRows=163
nColumns=2
inDegrees=yes
endheader
time	ankle_angle_r	
2.31235	  9.704727	
2.37485	  9.637452	
2.43734	  9.668032	
2.49984	  9.679603	
2.56234	  9.686342	
2.62483	  9.686318	
2.68733	  9.635359	
2.74982	  9.602067	
2.81232	  9.582922	
2.87482	  9.600941	
2.93731	  9.680327	
2.99981	  9.737261	
3.0623	  9.754244	
3.1248	  9.722526	
3.1873	  9.677468	
3.24979	  9.682249	
3.31229	  9.689480	
3.37478	  9.717188	
3.43728	  9.772052	
3.49978	  9.791440	
3.56227	  9.787280	
3.62477	  9.762297	
3.68726	  9.734611	
3.74976	  9.721154	
3.81226	  9.714180	
3.87475	  9.747068	
3.93725	  9.790155	
3.99974	  9.802471	
4.06224	  9.786446	
4.12474	  9.747345	
4.18723	  9.731986	
4.24973	  9.745462	
4.31222	  9.769397	
4.37472	  9.793799	
4.43722	  9.793410	
4.49971	  9.799653	
4.56221	  9.785277	
4.6247	  9.724678	
4.6872	  9.714743	
4.7497	  9.742609	
4.81219	  9.738609	
4.87469	  9.720112	
4.93718	  9.703582	
4.99968	  9.701572	
5.06218	  9.681395	
5.12467	  9.644579	
5.18717	  9.644118	
5.24966	  9.654957	
5.31216	  9.696377	
5.37466	  9.762346	
5.43715	  9.779920	
5.49965	  9.788255	
5.56214	  9.773761	
5.62464	  9.713171	
5.68714	  9.705816	
5.74963	  9.737687	
5.81213	  9.745774	
5.87462	  9.753135	
5.93712	  9.772599	
5.99962	  9.788387	
6.06211	  9.767094	
6.12461	  9.720778	
6.1871	  9.694306	
6.2496	  9.702283	
6.3121	  9.717609	
6.37459	  9.694936	
6.43709	  9.668696	
6.49958	  9.660505	
6.56208	  9.656029	
6.62458	  9.657202	
6.68707	  9.614534	
6.74957	  9.601632	
6.81206	  9.689872	
6.87456	  9.758918	
6.93706	  9.783801	
6.99955	  9.767374	
7.06205	  9.694672	
7.12454	  9.673765	
7.18704	  9.701324	
7.24954	  9.722009	
7.31203	  9.757179	
7.37453	  9.779087	
7.43702	  9.783007	
7.49952	  9.768218	
7.56202	  9.741410	
7.62451	  9.729407	
7.68701	  9.690703	
7.7495	  9.672549	
7.812	  9.719488	
7.8745	  9.729365	
7.93699	  9.699381	
7.99949	  9.689335	
8.06198	  9.657356	
8.12448	  9.593317	
8.18698	  9.580438	
8.24947	  9.636485	
8.31197	  9.678023	
8.37446	  9.685485	
8.43696	  9.686670	
8.49946	  9.675329	
8.56195	  9.649761	
8.62445	  9.622785	
8.68694	  9.648321	
8.74944	  9.707097	
8.81194	  9.685371	
8.87443	  9.629420	
8.93693	  9.637635	
8.99942	  9.683468	
9.06192	  9.721092	
9.12442	  9.710431	
9.18691	  9.713341	
9.24941	  9.775903	
9.3119	  9.798508	
9.3744	  9.785514	
9.4369	  9.769063	
9.49939	  9.729865	
9.56189	  9.716328	
9.62438	  9.726520	
9.68688	  9.748979	
9.74938	  9.779535	
9.81187	  9.778515	
9.87437	  9.769469	
9.93686	  9.746582	
9.99936	  9.694193	
10.0619	  9.653074	
10.1244	  9.651187	
10.1868	  9.696768	
10.2493	  9.723120	
10.3118	  9.692599	
10.3743	  9.648831	
10.4368	  9.616593	
10.4993	  9.613313	
10.5618	  9.619383	
10.6243	  9.625484	
10.6868	  9.639215	
10.7493	  9.667516	
10.8118	  9.716201	
10.8743	  9.678966	
10.9368	  9.587823	
10.9993	  9.616411	
11.0618	  9.679658	
11.1243	  9.683473	
11.1868	  9.690288	
11.2493	  9.718895	
11.3118	  9.769911	
11.3743	  9.783535	
11.4368	  9.752254	
11.4993	  9.741877	
11.5618	  9.729924	
11.6243	  9.741340	
11.6868	  9.790674	
11.7492	  9.810855	
11.8117	  9.798663	
11.8742	  9.757819	
11.9367	  9.709588	
11.9992	  9.714144	
12.0617	  9.756389	
12.1242	  9.760434	
12.1867	  9.723068	
12.2492	  9.732102	
12.3117	  9.751900	
12.3742	  9.689673	
12.4367	  9.597625	
